<svg width="17" height="17" viewBox="0 0 17 17" fill="none" xmlns="http://www.w3.org/2000/svg">
<path d="M8.36901 0L8.33098 0C3.72991 0 0 3.73101 0 8.33344L0 8.37148C0 12.9739 3.72991 16.7049 8.33098 16.7049H8.36901C12.9701 16.7049 16.7 12.9739 16.7 8.37148V8.33344C16.7 3.73101 12.9701 0 8.36901 0Z" fill="#894418"/>
<path d="M12.3866 6.04329V7.62055C12.111 7.59363 11.7529 7.53101 11.3568 7.38586C10.8396 7.19624 10.4546 6.93697 10.2024 6.73623V9.92411L10.196 9.91416C10.2001 9.97737 10.2024 10.0417 10.2024 10.1067C10.2024 11.6898 8.91468 12.9786 7.33145 12.9786C5.74822 12.9786 4.46045 11.6898 4.46045 10.1067C4.46045 8.5236 5.74822 7.23428 7.33145 7.23428C7.48649 7.23428 7.63862 7.24657 7.78723 7.27057V8.825C7.64447 8.77409 7.49117 8.74658 7.33145 8.74658C6.58196 8.74658 5.97172 9.35642 5.97172 10.1067C5.97172 10.857 6.58196 11.4668 7.33145 11.4668C8.08094 11.4668 8.69118 10.8564 8.69118 10.1067C8.69118 10.0786 8.69059 10.0505 8.68884 10.0224V3.82751L10.2645 3.82751C10.2703 3.96095 10.2756 4.09556 10.2814 4.229C10.292 4.49178 10.3856 4.74402 10.5488 4.95062C10.7401 5.1935 11.0227 5.47559 11.4194 5.70091C11.7909 5.91102 12.1397 6.00174 12.3866 6.04446V6.04329Z" fill="white"/>
</svg>
