<svg width="17" height="17" viewBox="0 0 17 17" fill="none" xmlns="http://www.w3.org/2000/svg">
<path d="M16.6407 8.35029C16.6407 12.5676 13.5256 16.0541 9.47885 16.6198C9.10046 16.6725 8.71333 16.7 8.32037 16.7C7.86678 16.7 7.42134 16.6637 6.98757 16.5935C3.02591 15.9534 0 12.5061 0 8.35029C0 3.73867 3.72554 0 8.32095 0C12.9164 0 16.6419 3.73867 16.6419 8.35029H16.6407Z" fill="#894418"/>
<path d="M9.4787 6.705V8.52402H11.721L11.366 10.9743H9.4787V16.6198C9.10032 16.6725 8.71319 16.7 8.32023 16.7C7.86663 16.7 7.4212 16.6637 6.98743 16.5935V10.9743H4.91943V8.52402H6.98743V6.29837C6.98743 4.91758 8.10276 3.79773 9.47928 3.79773V3.7989C9.48337 3.7989 9.48686 3.79773 9.49095 3.79773H11.7216V5.9169H10.264C9.83085 5.9169 9.47928 6.2697 9.47928 6.70442L9.4787 6.705Z" fill="white"/>
</svg>
