<svg width="18" height="18" viewBox="0 0 18 18" fill="none" xmlns="http://www.w3.org/2000/svg">
<path d="M14.125 13.25C13.4167 12.7083 12.625 12.2813 11.75 11.9688C10.875 11.6563 9.95832 11.5 8.99999 11.5C8.04166 11.5 7.12499 11.6563 6.24999 11.9688C5.37499 12.2813 4.58332 12.7083 3.87499 13.25C3.38888 12.6806 3.01041 12.0347 2.73957 11.3125C2.46874 10.5903 2.33332 9.81945 2.33332 9C2.33332 7.15278 2.98263 5.57986 4.28124 4.28125C5.57985 2.98264 7.15277 2.33333 8.99999 2.33333C10.8472 2.33333 12.4201 2.98264 13.7187 4.28125C15.0174 5.57986 15.6667 7.15278 15.6667 9C15.6667 9.81945 15.5312 10.5903 15.2604 11.3125C14.9896 12.0347 14.6111 12.6806 14.125 13.25ZM8.99999 9.83333C9.81944 9.83333 10.5104 9.55208 11.0729 8.98958C11.6354 8.42708 11.9167 7.73611 11.9167 6.91667C11.9167 6.09722 11.6354 5.40625 11.0729 4.84375C10.5104 4.28125 9.81944 4 8.99999 4C8.18055 4 7.48957 4.28125 6.92707 4.84375C6.36457 5.40625 6.08332 6.09722 6.08332 6.91667C6.08332 7.73611 6.36457 8.42708 6.92707 8.98958C7.48957 9.55208 8.18055 9.83333 8.99999 9.83333ZM8.99999 17.3333C10.1528 17.3333 11.2361 17.1146 12.25 16.6771C13.2639 16.2396 14.1458 15.6458 14.8958 14.8958C15.6458 14.1458 16.2396 13.2639 16.6771 12.25C17.1146 11.2361 17.3333 10.1528 17.3333 9C17.3333 7.84722 17.1146 6.76389 16.6771 5.75C16.2396 4.73611 15.6458 3.85417 14.8958 3.10417C14.1458 2.35417 13.2639 1.76042 12.25 1.32292C11.2361 0.885418 10.1528 0.666668 8.99999 0.666668C7.84721 0.666668 6.76388 0.885418 5.74999 1.32292C4.7361 1.76042 3.85416 2.35417 3.10416 3.10417C2.35416 3.85417 1.76041 4.73611 1.32291 5.75C0.885406 6.76389 0.666656 7.84722 0.666656 9C0.666656 10.1528 0.885406 11.2361 1.32291 12.25C1.76041 13.2639 2.35416 14.1458 3.10416 14.8958C3.85416 15.6458 4.7361 16.2396 5.74999 16.6771C6.76388 17.1146 7.84721 17.3333 8.99999 17.3333Z" fill="#1D1B20"/>
</svg>
