<svg width="17" height="17" viewBox="0 0 17 17" fill="none" xmlns="http://www.w3.org/2000/svg">
<path d="M8.3674 0L8.32938 0C3.72919 0 0 3.73029 0 8.33183L0 8.36986C0 12.9714 3.72919 16.7017 8.32938 16.7017H8.3674C12.9676 16.7017 16.6968 12.9714 16.6968 8.36986V8.33183C16.6968 3.73029 12.9676 0 8.3674 0Z" fill="#894418"/>
<path d="M10.9317 3.39795H5.76525C4.33792 3.39795 3.17676 4.55945 3.17676 5.9872V10.7151C3.17676 12.1429 4.33792 13.3044 5.76525 13.3044H10.9317C12.359 13.3044 13.5202 12.1429 13.5202 10.7151V5.9872C13.5202 4.55945 12.359 3.39795 10.9317 3.39795ZM4.0899 5.9872C4.0899 5.06326 4.84158 4.31135 5.76525 4.31135H10.9317C11.8554 4.31135 12.607 5.06326 12.607 5.9872V10.7151C12.607 11.6391 11.8554 12.391 10.9317 12.391H5.76525C4.84158 12.391 4.0899 11.6391 4.0899 10.7151V5.9872Z" fill="white"/>
<path d="M8.34865 10.7591C9.67595 10.7591 10.7564 9.67897 10.7564 8.3507C10.7564 7.02243 9.67653 5.94226 8.34865 5.94226C7.02077 5.94226 5.94092 7.02243 5.94092 8.3507C5.94092 9.67897 7.02077 10.7591 8.34865 10.7591ZM8.34865 6.85625C9.17287 6.85625 9.84325 7.52682 9.84325 8.35129C9.84325 9.17575 9.17287 9.84632 8.34865 9.84632C7.52443 9.84632 6.85406 9.17575 6.85406 8.35129C6.85406 7.52682 7.52443 6.85625 8.34865 6.85625Z" fill="white"/>
<path d="M10.9793 6.33129C11.3367 6.33129 11.628 6.04048 11.628 5.68237C11.628 5.32426 11.3373 5.03345 10.9793 5.03345C10.6213 5.03345 10.3306 5.32426 10.3306 5.68237C10.3306 6.04048 10.6213 6.33129 10.9793 6.33129Z" fill="white"/>
</svg>
